#!OML:ASF F:\VICON\USERDATA\INSTALL\rory3\rory3.ASF
:FULLY-SPECIFIED
:DEGREES
286
root 0.539938 16.3204 -13.4727 29.6544 -1.16748 -1.48483
lowerback -13.4607 -0.316098 -1.80841
upperback -11.4653 -0.271585 -0.276883
thorax -4.58049 -0.0327181 0.698143
lowerneck -20.197 0.580712 -5.88869
upperneck 25.8168 3.51423 -2.23954
head 11.7959 0.685358 0.71084
rclavicle -9.43451e-016 -3.57812e-015
rhumerus -55.0306 10.878 -91.0489
rradius 18.3928
rwrist -11.605
rhand 23.7275 4.00188
rfingers 7.12502
rthumb 47.9904 -18.2154
lclavicle -9.43451e-016 -3.57812e-015
lhumerus -55.7784 -0.830574 76.6958
lradius 35.0452
lwrist 8.6909
lhand 18.279 19.0312
lfingers 7.12502
lthumb 42.9286 43.3023
rfemur -21.9016 -6.52484 32.087
rtibia 43.6564
rfoot 24.0504 -25.4799
rtoes 19.7764
lfemur -50.7667 5.89215 -35.8082
ltibia 40.6178
lfoot -41.5714 25.8372
ltoes 15.1596
287
root 0.536759 16.3248 -13.4771 29.8347 -1.21055 -1.43489
lowerback -13.4626 -0.319125 -1.9089
upperback -11.6409 -0.269804 -0.307223
thorax -4.7729 -0.0237715 0.722716
lowerneck -20.1555 0.599194 -5.53984
upperneck 25.9575 3.50298 -2.49313
head 11.8542 0.676426 0.557013
rclavicle 6.23532e-016 -1.59028e-015
rhumerus -55.1936 10.9094 -91.1548
rradius 18.3206
rwrist -11.6585
rhand 23.6742 3.64791
rfingers 7.12502
rthumb 47.9412 -18.5923
lclavicle 6.23532e-016 -1.59028e-015
lhumerus -55.8979 -1.08991 76.7433
lradius 35.0195
lwrist 8.94562
lhand 18.4906 19.1741
lfingers 7.12502
lthumb 43.1264 43.3752
rfemur -22.1265 -6.44482 32.0703
rtibia 43.647
rfoot 24.2886 -25.5257
rtoes 19.6824
lfemur -50.9952 5.9143 -35.902
ltibia 40.6192
lfoot -41.6055 25.9636
ltoes 14.1103
288
root 0.538542 16.3284 -13.4768 29.8506 -1.30817 -1.56509
lowerback -13.6048 -0.262871 -1.82376
upperback -11.6258 -0.198988 -0.282813
thorax -4.68187 0.00645182 0.706783
lowerneck -19.8359 0.556079 -5.40434
upperneck 25.8511 3.39362 -2.59515
head 11.7555 0.635377 0.476805
rclavicle 9.36928e-015 -3.18055e-015
rhumerus -55.1923 11.1484 -91.3864
rradius 18.311
rwrist -12.0119
rhand 23.8144 3.36322
rfingers 7.12502
rthumb 48.0705 -18.8167
lclavicle 9.36928e-015 -3.18055e-015
lhumerus -55.84 -1.2991 76.8432
lradius 34.9318
lwrist 9.2525
lhand 18.6284 19.3849
lfingers 7.12502
lthumb 43.2552 43.54
rfemur -22.0876 -6.39165 32.1531
rtibia 43.59
rfoot 24.1176 -25.3901
rtoes 19.2437
lfemur -51.0014 5.91509 -35.7666
ltibia 40.6298
lfoot -41.9826 26.0397
ltoes 13.7944
289
root 0.538834 16.3314 -13.4762 29.8934 -1.46155 -1.70113
lowerback -13.6891 -0.199696 -1.78494
upperback -11.696 -0.117417 -0.245311
thorax -4.71595 0.0472326 0.731772
lowerneck -19.4488 0.493477 -5.31398
upperneck 25.8312 3.25877 -2.65202
head 11.6754 0.581967 0.417171
rclavicle 7.8784e-015 -5.1684e-015
rhumerus -55.277 11.2154 -91.3908
rradius 18.1878
rwrist -12.1117
rhand 24.1797 3.68764
rfingers 7.12502
rthumb 48.407 -18.333
lclavicle 7.8784e-015 -5.1684e-015
lhumerus -55.9885 -1.41864 76.8595
lradius 34.9933
lwrist 9.52815
lhand 18.7357 19.4904
lfingers 7.12502
lthumb 43.3556 43.6095
rfemur -22.0552 -6.2634 32.2155
rtibia 43.5373
rfoot 23.5899 -25.6936
rtoes 20.5748
lfemur -51.0328 5.87539 -35.6019
ltibia 40.602
lfoot -42.0817 25.9858
ltoes 14.8909
290
root 0.539457 16.3356 -13.4761 30.0324 -1.69403 -1.84803
lowerback -13.7063 -0.122007 -1.74571
upperback -11.8748 -0.0197418 -0.196948
thorax -4.90619 0.0982736 0.7693
lowerneck -19.2131 0.52471 -5.2802
upperneck 25.9287 3.26689 -2.61044
head 11.665 0.594047 0.42694
rclavicle 3.16502e-015 1.19271e-015
rhumerus -55.6784 11.4695 -91.5761
rradius 18.4055
rwrist -12.4184
rhand 24.5173 3.81022
rfingers 7.12502
rthumb 48.7176 -18.0607
lclavicle 3.16502e-015 1.19271e-015
lhumerus -56.2752 -1.69223 77.0412
lradius 35.2028
lwrist 9.77402
lhand 18.9262 19.3639
lfingers 7.12502
lthumb 43.5334 43.4187
rfemur -22.1833 -6.20751 32.2526
rtibia 43.5084
rfoot 23.8477 -25.7592
rtoes 21.3038
lfemur -51.2532 5.97022 -35.5312
ltibia 40.5726
lfoot -41.7869 26.4362
ltoes 14.4223
291
root 0.539085 16.3391 -13.4772 30.1595 -1.91743 -1.7899
lowerback -13.8134 -0.102976 -1.91264
upperback -11.9264 0.0217823 -0.195186
thorax -4.90864 0.130859 0.86845
lowerneck -19.1969 0.613165 -5.19956
upperneck 26.0251 3.35419 -2.55387
head 11.6966 0.645695 0.448047
rclavicle 1.56232e-015 -5.96354e-015
rhumerus -55.757 11.6073 -91.585
rradius 18.6192
rwrist -12.4723
rhand 25.2152 3.44144
rfingers 7.12502
rthumb 49.3586 -18.1117
lclavicle 1.56232e-015 -5.96354e-015
lhumerus -56.2537 -1.94633 77.1925
lradius 35.3426
lwrist 9.92349
lhand 19.4868 19.5104
lfingers 7.12502
lthumb 44.0567 43.3721
rfemur -22.3482 -6.17474 32.0986
rtibia 43.5268
rfoot 24.2355 -25.5674
rtoes 21.066
lfemur -51.3956 6.02419 -35.6931
ltibia 40.5181
lfoot -41.7243 26.89
ltoes 12.9746
